<svg xmlns="http://www.w3.org/2000/svg" viewBox="0 0 98 80">
  <path d="M37.7016 71.8775C38.2091 72.0528 38.4886 72.5965 38.3358 73.1112L36.6427 78.8122C36.5163 79.2378 36.1251 79.5297 35.6812 79.5297H20.9052C20.4592 79.5297 20.0667 79.2351 19.9421 78.8069L16.2577 66.1479C16.0303 65.3665 16.7789 64.6538 17.5481 64.9194L37.7016 71.8775Z" fill="#F00000"/>
  <path d="M58.9849 68.5554C58.7448 67.7052 59.6191 67.0226 60.3724 67.484C60.9729 67.8519 61.5779 68.2128 62.3015 68.5665C67.6054 71.1595 72.6434 73.6055 77.6158 75.5214C78.0721 75.6973 78.3398 76.1734 78.2477 76.6537L78.0061 77.9124C77.9154 78.3849 77.5021 78.7264 77.021 78.7264H62.6158C62.1668 78.7264 61.7725 78.428 61.6505 77.9959L58.9849 68.5554Z" fill="#2EB67D"/>
  <path d="M75.0632 32.8314C75.2521 31.7644 76.8066 31.7019 77.1013 32.7447C77.2338 33.2137 77.3678 33.681 77.5031 34.1461C78.9939 39.2687 80.6661 44.1807 82.5174 48.4045C83.441 50.5114 83.7399 52.1483 84.7018 53.8714C84.8401 54.1192 84.8814 54.4117 84.8013 54.684L80.2166 70.2721C80.0521 70.8316 79.4465 71.1335 78.9022 70.9242C74.3005 69.1547 70.0865 67.2709 65.151 64.858C62.3093 63.4686 59.5018 61.983 56.7885 60.4047C56.5687 60.2768 56.4064 60.0695 56.334 59.8257L55.9433 58.5108C55.8756 58.2829 55.891 58.0384 55.9869 57.8208L63.3607 41.0795C63.7436 40.2103 65.0077 40.3105 65.2489 41.2291L68.6414 54.1535C68.7841 54.6969 69.0313 55.3347 69.5727 55.4846C70.8206 55.8303 73.6666 40.7189 75.0632 32.8314Z" fill="#FCB835"/>
  <path d="M60.807 30.1829C61.5349 30.1829 62.0204 30.9338 61.7217 31.5975L57.8445 40.2135L54.4606 47.3573C54.0657 48.191 52.8497 48.0945 52.5912 47.2089L49.5668 36.8476C49.5213 36.6915 49.3782 36.5842 49.2156 36.5842C49.0536 36.5842 48.9108 36.6908 48.8648 36.8462L44.782 50.6334C44.566 51.3627 43.6487 51.5957 43.1109 51.0579C42.0038 49.9507 40.8966 48.8436 39.7895 47.7364C37.4239 45.3709 36.8436 44.7905 34.6804 42.6273C34.4284 42.3753 34.3282 42.0077 34.4186 41.6629L37.2313 30.9316C37.3469 30.4905 37.7456 30.1829 38.2016 30.1829H55.8384H60.807Z" fill="#36C5F0"/>
  <path d="M48.8171 1.59556L38.7864 23.1613C37.6292 25.4105 39.0645 26.9128 41.7956 25.1674L46.8108 22.1583C48.3682 21.163 51.3276 21.1353 52.8292 22.1583L58.8476 25.1674C61.5009 26.9751 63.4574 25.4385 62.3584 23.1613L52.8292 1.59556C51.8 -0.536991 49.909 -0.526707 48.8171 1.59556Z" fill="#2EB67D"/>
  <path d="M87.1606 45.9842C87.0808 46.2474 86.7273 46.2692 86.6169 46.0173C84.8831 42.0619 83.4225 37.2043 81.8239 32.3722C80.2572 27.6366 78.4798 22.8549 76.9932 17.945C76.934 17.7495 76.9366 17.5406 76.9998 17.3463L79.4532 9.81114C79.5877 9.39816 79.9727 9.11863 80.407 9.11863H96.9963C97.6695 9.11863 98.1516 9.76875 97.9561 10.413L87.1606 45.9842Z" fill="#F00000"/>
  <path d="M18.6134 13.1293C18.6836 13.4451 18.596 13.7743 18.3861 14.0205C16.7485 15.9415 15.486 18.1003 13.6629 20.6391C11.5852 23.5326 9.465 26.7096 7.44511 29.8595C6.97848 30.5872 5.86896 30.4301 5.62743 29.6001L0.0405798 10.402C-0.146198 9.76013 0.335234 9.11863 1.00369 9.11863H16.9176C17.3877 9.11863 17.7947 9.44516 17.8967 9.90409L18.6134 13.1293Z" fill="#36C5F0"/>
  <path d="M29.2574 54.2563C29.2961 54.4245 29.7589 54.7578 30.2604 54.7578C30.7619 54.7578 30.719 54.419 30.7619 54.2563L32.2665 47.2349C32.4825 46.4141 33.2435 46.5702 33.7711 47.2349C34.5678 48.2393 35.1772 48.7497 36.0662 49.7033C38.0675 51.85 40.2997 53.8836 42.6958 55.8089C43.0158 56.066 43.1505 56.4909 43.0337 56.8844L40.4997 65.4153C40.3369 65.9625 39.7503 66.2637 39.2106 66.0775L14.713 58.2685C14.4053 58.1623 13.8009 57.5781 13.7099 57.2655L11.2023 49.241L25.2451 38.7089L29.2574 54.2563Z" fill="#2EB67D"/>
  <path d="M18.9681 21.5466C19.4751 20.8756 20.5426 21.339 20.7314 22.1586L23.7405 33.6937L9.6977 44.2258L8.19312 39.2105C8.11413 38.9391 8.045 38.4483 8.19312 38.2075C11.0772 33.5201 14.0321 28.3627 17.2118 23.9347C17.8061 23.1071 18.3923 22.3085 18.9681 21.5466Z" fill="#FCB835"/>
</svg>
